%
M48
M72
T01C0.01378
T02C0.03150
T03C0.03800
T04C0.04000
T05C0.05500
T06C0.08661
T07C0.11024
T08C0.11800
%
T01
X256300Y196300
X316300Y196300
X371300Y256300
X436300Y316300
X436300Y376300
X461300Y381300
X436300Y426300
X496300Y436300
X556300Y376300
X616300Y316300
X646300Y376300
X631300Y421300
X721300Y403800
X676300Y496300
X616300Y556300
X603800Y573800
X556300Y496300
X466300Y496300
X371300Y426300
X316300Y436300
X316300Y376300
X371300Y361300
X496300Y256300
X556300Y256300
X556300Y196300
X496300Y136300
X436300Y76300
X403800Y138800
X376300Y136300
X316300Y76300
X616300Y76300
X676300Y76300
X736300Y76300
X736300Y136300
X676300Y136300
X668800Y158800
X736300Y196300
X676300Y256300
X943800Y461300
X963800Y453800
X933800Y511300
X958800Y568800
X938800Y628800
X968800Y638800
X953800Y691300
X958800Y703800
X968800Y706300
X968800Y721300
X943800Y716300
X943800Y731300
X928800Y721300
X928800Y713800
X928800Y706300
X891300Y743800
X911300Y748800
X881300Y776300
X813800Y731300
X813800Y723800
X813800Y716300
X798800Y716300
X773800Y711300
X758800Y706300
X758800Y721300
X773800Y726300
X776300Y743800
X758800Y748800
X758800Y756300
X746300Y781300
X771300Y791300
X801300Y786300
X713800Y853800
X668800Y816300
X591300Y781300
X606300Y743800
X603800Y731300
X626300Y743800
X643800Y736300
X643800Y728800
X643800Y721300
X628800Y721300
X626300Y703800
X616300Y701300
X593800Y698800
X588800Y706300
X588800Y718800
X588800Y726300
X653800Y748800
X481300Y688800
X466300Y691300
X448800Y716300
X448800Y731300
X423800Y736300
X426300Y743800
X408800Y733800
X408800Y718800
X408800Y711300
X381300Y738800
X316300Y748800
X303800Y718800
X293800Y721300
X293800Y713800
X293800Y706300
X288800Y698800
X278800Y721300
X276300Y743800
X256300Y748800
X231300Y738800
X238800Y726300
X253800Y721300
X253800Y731300
X256300Y701300
X261300Y678800
X161300Y743800
X136300Y733800
X128800Y726300
X123800Y733800
X106300Y738800
X93800Y743800
X68800Y733800
X68800Y726300
X68800Y716300
X68800Y706300
X108800Y711300
X141300Y706300
X146300Y693800
X151300Y678800
X108800Y641300
X98800Y623800
X93800Y568800
X128800Y501300
X88800Y453800
X123800Y446300
X303800Y526300
X331300Y516300
X336300Y573800
X341300Y591300
X361300Y603800
X418800Y611300
X463800Y723800
X451300Y781300
X416300Y796300
X726300Y576300
X861300Y571300
X1046300Y743800
X1098800Y716300
X1113800Y716300
X1138800Y721300
X1138800Y731300
X1153800Y726300
X1153800Y711300
X1148800Y698800
X1138800Y706300
X1133800Y566300
X1113800Y501300
X1158800Y481300
X1143800Y436300
X1098800Y426300
X1153800Y306300
X1138800Y261300
X1148800Y191300
T02
X466300Y901300
X466300Y911300
T03
X596300Y931300
X606300Y931300
X616300Y931300
X626300Y931300
X636300Y931300
X646300Y931300
X656300Y931300
X666300Y931300
X676300Y931300
X686300Y931300
X696300Y931300
X706300Y931300
X716300Y931300
X726300Y931300
X736300Y931300
X746300Y931300
X756300Y931300
X766300Y931300
X776300Y931300
X786300Y931300
X796300Y931300
X806300Y931300
X816300Y931300
X826300Y931300
X826300Y871300
X816300Y871300
X806300Y871300
X796300Y871300
X786300Y871300
X776300Y871300
X766300Y871300
X756300Y871300
X746300Y871300
X736300Y871300
X726300Y871300
X716300Y871300
X706300Y871300
X696300Y871300
X686300Y871300
X676300Y871300
X666300Y871300
X656300Y871300
X646300Y871300
X636300Y871300
X626300Y871300
X616300Y871300
X606300Y871300
X596300Y871300
T04
X616300Y771300
X786300Y771300
X956300Y771300
X1126300Y771300
X1066300Y601300
X1066300Y541300
X1066300Y481300
X1066300Y421300
X1066300Y361300
X1066300Y301300
X1066300Y241300
X1066300Y181300
X1186300Y181300
X1186300Y241300
X1186300Y301300
X1186300Y361300
X1186300Y421300
X1186300Y481300
X1186300Y541300
X1186300Y601300
X796300Y506300
X736300Y506300
X676300Y506300
X616300Y506300
X556300Y506300
X496300Y506300
X436300Y506300
X376300Y506300
X316300Y506300
X256300Y506300
X316300Y566300
X376300Y566300
X436300Y566300
X496300Y566300
X556300Y566300
X616300Y566300
X676300Y566300
X736300Y566300
X736300Y446300
X676300Y446300
X616300Y446300
X556300Y446300
X496300Y446300
X436300Y446300
X376300Y446300
X316300Y446300
X256300Y446300
X256300Y386300
X316300Y386300
X316300Y331300
X371300Y326300
X376300Y266300
X316300Y266300
X256300Y266300
X256300Y206300
X316300Y206300
X376300Y206300
X436300Y206300
X496300Y206300
X556300Y206300
X616300Y206300
X676300Y206300
X736300Y206300
X796300Y206300
X796300Y146300
X736300Y146300
X676300Y146300
X616300Y146300
X556300Y146300
X496300Y146300
X436300Y146300
X376300Y146300
X316300Y146300
X256300Y146300
X256300Y86300
X316300Y86300
X376300Y86300
X436300Y86300
X496300Y86300
X556300Y86300
X616300Y86300
X676300Y86300
X736300Y86300
X796300Y86300
X736300Y26300
X676300Y26300
X616300Y26300
X556300Y26300
X496300Y26300
X436300Y26300
X376300Y26300
X316300Y26300
X436300Y266300
X496300Y266300
X556300Y266300
X616300Y266300
X676300Y266300
X736300Y266300
X796300Y266300
X796300Y326300
X736300Y326300
X676300Y326300
X616300Y326300
X556300Y326300
X496300Y326300
X436300Y326300
X436300Y386300
X496300Y386300
X556300Y386300
X616300Y386300
X676300Y386300
X736300Y386300
X796300Y386300
X796300Y446300
X376300Y386300
X256300Y326300
X266300Y771300
X96300Y771300
X436300Y771300
T05
X385300Y756300
X366300Y756300
X347300Y756300
X215300Y756300
X196300Y756300
X177300Y756300
X517300Y756300
X536300Y756300
X555300Y756300
X697300Y756300
X716300Y756300
X735300Y756300
X867300Y756300
X886300Y756300
X905300Y756300
X1037300Y756300
X1056300Y756300
X1075300Y756300
X1207300Y756300
X1226300Y756300
X1245300Y756300
T06
X446300Y881300
X446300Y921300
T07
X111300Y71300
X111300Y921300
X1211300Y921300
X1211300Y71300
T08
X919174Y882796
X907363Y901300
X930985Y901300
M30
