G75*
%MOIN*%
%OFA0B0*%
%FSLAX25Y25*%
%IPPOS*%
%LPD*%
%AMOC8*
5,1,8,0,0,1.08239X$1,22.5*
%
%ADD10C,0.00600*%
%ADD11C,0.05950*%
%ADD12C,0.13461*%
%ADD13C,0.17800*%
%ADD14C,0.06600*%
%ADD15C,0.09050*%
%ADD16C,0.00000*%
%ADD17C,0.11824*%
%ADD18C,0.03778*%
%ADD19C,0.06800*%
D10*
X0001300Y0001300D02*
X0001300Y0991300D01*
X1281300Y0991300D01*
X1281300Y0001300D01*
X0001300Y0001300D01*
D11*
X0463725Y0901300D02*
X0468875Y0901300D01*
X0468875Y0911300D02*
X0463725Y0911300D01*
D12*
X0446300Y0921300D03*
X0446300Y0881300D03*
D13*
X0907363Y0901300D03*
X0919174Y0882796D03*
X0930985Y0901300D03*
D14*
X0826300Y0871300D03*
X0816300Y0871300D03*
X0806300Y0871300D03*
X0796300Y0871300D03*
X0786300Y0871300D03*
X0776300Y0871300D03*
X0766300Y0871300D03*
X0756300Y0871300D03*
X0746300Y0871300D03*
X0736300Y0871300D03*
X0726300Y0871300D03*
X0716300Y0871300D03*
X0706300Y0871300D03*
X0696300Y0871300D03*
X0686300Y0871300D03*
X0676300Y0871300D03*
X0666300Y0871300D03*
X0656300Y0871300D03*
X0646300Y0871300D03*
X0636300Y0871300D03*
X0626300Y0871300D03*
X0616300Y0871300D03*
X0606300Y0871300D03*
X0596300Y0871300D03*
X0596300Y0931300D03*
X0606300Y0931300D03*
X0616300Y0931300D03*
X0626300Y0931300D03*
X0636300Y0931300D03*
X0646300Y0931300D03*
X0656300Y0931300D03*
X0666300Y0931300D03*
X0676300Y0931300D03*
X0686300Y0931300D03*
X0696300Y0931300D03*
X0706300Y0931300D03*
X0716300Y0931300D03*
X0726300Y0931300D03*
X0736300Y0931300D03*
X0746300Y0931300D03*
X0756300Y0931300D03*
X0766300Y0931300D03*
X0776300Y0931300D03*
X0786300Y0931300D03*
X0796300Y0931300D03*
X0806300Y0931300D03*
X0816300Y0931300D03*
X0826300Y0931300D03*
D15*
X0867300Y0756300D03*
X0886300Y0756300D03*
X0905300Y0756300D03*
X1037300Y0756300D03*
X1056300Y0756300D03*
X1075300Y0756300D03*
X1207300Y0756300D03*
X1226300Y0756300D03*
X1245300Y0756300D03*
X0735300Y0756300D03*
X0716300Y0756300D03*
X0697300Y0756300D03*
X0555300Y0756300D03*
X0536300Y0756300D03*
X0517300Y0756300D03*
X0385300Y0756300D03*
X0366300Y0756300D03*
X0347300Y0756300D03*
X0215300Y0756300D03*
X0196300Y0756300D03*
X0177300Y0756300D03*
D16*
X0105788Y0921300D02*
X0105790Y0921448D01*
X0105796Y0921596D01*
X0105806Y0921744D01*
X0105820Y0921891D01*
X0105838Y0922038D01*
X0105859Y0922184D01*
X0105885Y0922330D01*
X0105915Y0922475D01*
X0105948Y0922619D01*
X0105986Y0922762D01*
X0106027Y0922904D01*
X0106072Y0923045D01*
X0106120Y0923185D01*
X0106173Y0923324D01*
X0106229Y0923461D01*
X0106289Y0923596D01*
X0106352Y0923730D01*
X0106419Y0923862D01*
X0106490Y0923992D01*
X0106564Y0924120D01*
X0106641Y0924246D01*
X0106722Y0924370D01*
X0106806Y0924492D01*
X0106893Y0924611D01*
X0106984Y0924728D01*
X0107078Y0924843D01*
X0107174Y0924955D01*
X0107274Y0925065D01*
X0107376Y0925171D01*
X0107482Y0925275D01*
X0107590Y0925376D01*
X0107701Y0925474D01*
X0107814Y0925570D01*
X0107930Y0925662D01*
X0108048Y0925751D01*
X0108169Y0925836D01*
X0108292Y0925919D01*
X0108417Y0925998D01*
X0108544Y0926074D01*
X0108673Y0926146D01*
X0108804Y0926215D01*
X0108937Y0926280D01*
X0109072Y0926341D01*
X0109208Y0926399D01*
X0109345Y0926454D01*
X0109484Y0926504D01*
X0109625Y0926551D01*
X0109766Y0926594D01*
X0109909Y0926634D01*
X0110053Y0926669D01*
X0110197Y0926701D01*
X0110343Y0926728D01*
X0110489Y0926752D01*
X0110636Y0926772D01*
X0110783Y0926788D01*
X0110930Y0926800D01*
X0111078Y0926808D01*
X0111226Y0926812D01*
X0111374Y0926812D01*
X0111522Y0926808D01*
X0111670Y0926800D01*
X0111817Y0926788D01*
X0111964Y0926772D01*
X0112111Y0926752D01*
X0112257Y0926728D01*
X0112403Y0926701D01*
X0112547Y0926669D01*
X0112691Y0926634D01*
X0112834Y0926594D01*
X0112975Y0926551D01*
X0113116Y0926504D01*
X0113255Y0926454D01*
X0113392Y0926399D01*
X0113528Y0926341D01*
X0113663Y0926280D01*
X0113796Y0926215D01*
X0113927Y0926146D01*
X0114056Y0926074D01*
X0114183Y0925998D01*
X0114308Y0925919D01*
X0114431Y0925836D01*
X0114552Y0925751D01*
X0114670Y0925662D01*
X0114786Y0925570D01*
X0114899Y0925474D01*
X0115010Y0925376D01*
X0115118Y0925275D01*
X0115224Y0925171D01*
X0115326Y0925065D01*
X0115426Y0924955D01*
X0115522Y0924843D01*
X0115616Y0924728D01*
X0115707Y0924611D01*
X0115794Y0924492D01*
X0115878Y0924370D01*
X0115959Y0924246D01*
X0116036Y0924120D01*
X0116110Y0923992D01*
X0116181Y0923862D01*
X0116248Y0923730D01*
X0116311Y0923596D01*
X0116371Y0923461D01*
X0116427Y0923324D01*
X0116480Y0923185D01*
X0116528Y0923045D01*
X0116573Y0922904D01*
X0116614Y0922762D01*
X0116652Y0922619D01*
X0116685Y0922475D01*
X0116715Y0922330D01*
X0116741Y0922184D01*
X0116762Y0922038D01*
X0116780Y0921891D01*
X0116794Y0921744D01*
X0116804Y0921596D01*
X0116810Y0921448D01*
X0116812Y0921300D01*
X0116810Y0921152D01*
X0116804Y0921004D01*
X0116794Y0920856D01*
X0116780Y0920709D01*
X0116762Y0920562D01*
X0116741Y0920416D01*
X0116715Y0920270D01*
X0116685Y0920125D01*
X0116652Y0919981D01*
X0116614Y0919838D01*
X0116573Y0919696D01*
X0116528Y0919555D01*
X0116480Y0919415D01*
X0116427Y0919276D01*
X0116371Y0919139D01*
X0116311Y0919004D01*
X0116248Y0918870D01*
X0116181Y0918738D01*
X0116110Y0918608D01*
X0116036Y0918480D01*
X0115959Y0918354D01*
X0115878Y0918230D01*
X0115794Y0918108D01*
X0115707Y0917989D01*
X0115616Y0917872D01*
X0115522Y0917757D01*
X0115426Y0917645D01*
X0115326Y0917535D01*
X0115224Y0917429D01*
X0115118Y0917325D01*
X0115010Y0917224D01*
X0114899Y0917126D01*
X0114786Y0917030D01*
X0114670Y0916938D01*
X0114552Y0916849D01*
X0114431Y0916764D01*
X0114308Y0916681D01*
X0114183Y0916602D01*
X0114056Y0916526D01*
X0113927Y0916454D01*
X0113796Y0916385D01*
X0113663Y0916320D01*
X0113528Y0916259D01*
X0113392Y0916201D01*
X0113255Y0916146D01*
X0113116Y0916096D01*
X0112975Y0916049D01*
X0112834Y0916006D01*
X0112691Y0915966D01*
X0112547Y0915931D01*
X0112403Y0915899D01*
X0112257Y0915872D01*
X0112111Y0915848D01*
X0111964Y0915828D01*
X0111817Y0915812D01*
X0111670Y0915800D01*
X0111522Y0915792D01*
X0111374Y0915788D01*
X0111226Y0915788D01*
X0111078Y0915792D01*
X0110930Y0915800D01*
X0110783Y0915812D01*
X0110636Y0915828D01*
X0110489Y0915848D01*
X0110343Y0915872D01*
X0110197Y0915899D01*
X0110053Y0915931D01*
X0109909Y0915966D01*
X0109766Y0916006D01*
X0109625Y0916049D01*
X0109484Y0916096D01*
X0109345Y0916146D01*
X0109208Y0916201D01*
X0109072Y0916259D01*
X0108937Y0916320D01*
X0108804Y0916385D01*
X0108673Y0916454D01*
X0108544Y0916526D01*
X0108417Y0916602D01*
X0108292Y0916681D01*
X0108169Y0916764D01*
X0108048Y0916849D01*
X0107930Y0916938D01*
X0107814Y0917030D01*
X0107701Y0917126D01*
X0107590Y0917224D01*
X0107482Y0917325D01*
X0107376Y0917429D01*
X0107274Y0917535D01*
X0107174Y0917645D01*
X0107078Y0917757D01*
X0106984Y0917872D01*
X0106893Y0917989D01*
X0106806Y0918108D01*
X0106722Y0918230D01*
X0106641Y0918354D01*
X0106564Y0918480D01*
X0106490Y0918608D01*
X0106419Y0918738D01*
X0106352Y0918870D01*
X0106289Y0919004D01*
X0106229Y0919139D01*
X0106173Y0919276D01*
X0106120Y0919415D01*
X0106072Y0919555D01*
X0106027Y0919696D01*
X0105986Y0919838D01*
X0105948Y0919981D01*
X0105915Y0920125D01*
X0105885Y0920270D01*
X0105859Y0920416D01*
X0105838Y0920562D01*
X0105820Y0920709D01*
X0105806Y0920856D01*
X0105796Y0921004D01*
X0105790Y0921152D01*
X0105788Y0921300D01*
X0105788Y0071300D02*
X0105790Y0071448D01*
X0105796Y0071596D01*
X0105806Y0071744D01*
X0105820Y0071891D01*
X0105838Y0072038D01*
X0105859Y0072184D01*
X0105885Y0072330D01*
X0105915Y0072475D01*
X0105948Y0072619D01*
X0105986Y0072762D01*
X0106027Y0072904D01*
X0106072Y0073045D01*
X0106120Y0073185D01*
X0106173Y0073324D01*
X0106229Y0073461D01*
X0106289Y0073596D01*
X0106352Y0073730D01*
X0106419Y0073862D01*
X0106490Y0073992D01*
X0106564Y0074120D01*
X0106641Y0074246D01*
X0106722Y0074370D01*
X0106806Y0074492D01*
X0106893Y0074611D01*
X0106984Y0074728D01*
X0107078Y0074843D01*
X0107174Y0074955D01*
X0107274Y0075065D01*
X0107376Y0075171D01*
X0107482Y0075275D01*
X0107590Y0075376D01*
X0107701Y0075474D01*
X0107814Y0075570D01*
X0107930Y0075662D01*
X0108048Y0075751D01*
X0108169Y0075836D01*
X0108292Y0075919D01*
X0108417Y0075998D01*
X0108544Y0076074D01*
X0108673Y0076146D01*
X0108804Y0076215D01*
X0108937Y0076280D01*
X0109072Y0076341D01*
X0109208Y0076399D01*
X0109345Y0076454D01*
X0109484Y0076504D01*
X0109625Y0076551D01*
X0109766Y0076594D01*
X0109909Y0076634D01*
X0110053Y0076669D01*
X0110197Y0076701D01*
X0110343Y0076728D01*
X0110489Y0076752D01*
X0110636Y0076772D01*
X0110783Y0076788D01*
X0110930Y0076800D01*
X0111078Y0076808D01*
X0111226Y0076812D01*
X0111374Y0076812D01*
X0111522Y0076808D01*
X0111670Y0076800D01*
X0111817Y0076788D01*
X0111964Y0076772D01*
X0112111Y0076752D01*
X0112257Y0076728D01*
X0112403Y0076701D01*
X0112547Y0076669D01*
X0112691Y0076634D01*
X0112834Y0076594D01*
X0112975Y0076551D01*
X0113116Y0076504D01*
X0113255Y0076454D01*
X0113392Y0076399D01*
X0113528Y0076341D01*
X0113663Y0076280D01*
X0113796Y0076215D01*
X0113927Y0076146D01*
X0114056Y0076074D01*
X0114183Y0075998D01*
X0114308Y0075919D01*
X0114431Y0075836D01*
X0114552Y0075751D01*
X0114670Y0075662D01*
X0114786Y0075570D01*
X0114899Y0075474D01*
X0115010Y0075376D01*
X0115118Y0075275D01*
X0115224Y0075171D01*
X0115326Y0075065D01*
X0115426Y0074955D01*
X0115522Y0074843D01*
X0115616Y0074728D01*
X0115707Y0074611D01*
X0115794Y0074492D01*
X0115878Y0074370D01*
X0115959Y0074246D01*
X0116036Y0074120D01*
X0116110Y0073992D01*
X0116181Y0073862D01*
X0116248Y0073730D01*
X0116311Y0073596D01*
X0116371Y0073461D01*
X0116427Y0073324D01*
X0116480Y0073185D01*
X0116528Y0073045D01*
X0116573Y0072904D01*
X0116614Y0072762D01*
X0116652Y0072619D01*
X0116685Y0072475D01*
X0116715Y0072330D01*
X0116741Y0072184D01*
X0116762Y0072038D01*
X0116780Y0071891D01*
X0116794Y0071744D01*
X0116804Y0071596D01*
X0116810Y0071448D01*
X0116812Y0071300D01*
X0116810Y0071152D01*
X0116804Y0071004D01*
X0116794Y0070856D01*
X0116780Y0070709D01*
X0116762Y0070562D01*
X0116741Y0070416D01*
X0116715Y0070270D01*
X0116685Y0070125D01*
X0116652Y0069981D01*
X0116614Y0069838D01*
X0116573Y0069696D01*
X0116528Y0069555D01*
X0116480Y0069415D01*
X0116427Y0069276D01*
X0116371Y0069139D01*
X0116311Y0069004D01*
X0116248Y0068870D01*
X0116181Y0068738D01*
X0116110Y0068608D01*
X0116036Y0068480D01*
X0115959Y0068354D01*
X0115878Y0068230D01*
X0115794Y0068108D01*
X0115707Y0067989D01*
X0115616Y0067872D01*
X0115522Y0067757D01*
X0115426Y0067645D01*
X0115326Y0067535D01*
X0115224Y0067429D01*
X0115118Y0067325D01*
X0115010Y0067224D01*
X0114899Y0067126D01*
X0114786Y0067030D01*
X0114670Y0066938D01*
X0114552Y0066849D01*
X0114431Y0066764D01*
X0114308Y0066681D01*
X0114183Y0066602D01*
X0114056Y0066526D01*
X0113927Y0066454D01*
X0113796Y0066385D01*
X0113663Y0066320D01*
X0113528Y0066259D01*
X0113392Y0066201D01*
X0113255Y0066146D01*
X0113116Y0066096D01*
X0112975Y0066049D01*
X0112834Y0066006D01*
X0112691Y0065966D01*
X0112547Y0065931D01*
X0112403Y0065899D01*
X0112257Y0065872D01*
X0112111Y0065848D01*
X0111964Y0065828D01*
X0111817Y0065812D01*
X0111670Y0065800D01*
X0111522Y0065792D01*
X0111374Y0065788D01*
X0111226Y0065788D01*
X0111078Y0065792D01*
X0110930Y0065800D01*
X0110783Y0065812D01*
X0110636Y0065828D01*
X0110489Y0065848D01*
X0110343Y0065872D01*
X0110197Y0065899D01*
X0110053Y0065931D01*
X0109909Y0065966D01*
X0109766Y0066006D01*
X0109625Y0066049D01*
X0109484Y0066096D01*
X0109345Y0066146D01*
X0109208Y0066201D01*
X0109072Y0066259D01*
X0108937Y0066320D01*
X0108804Y0066385D01*
X0108673Y0066454D01*
X0108544Y0066526D01*
X0108417Y0066602D01*
X0108292Y0066681D01*
X0108169Y0066764D01*
X0108048Y0066849D01*
X0107930Y0066938D01*
X0107814Y0067030D01*
X0107701Y0067126D01*
X0107590Y0067224D01*
X0107482Y0067325D01*
X0107376Y0067429D01*
X0107274Y0067535D01*
X0107174Y0067645D01*
X0107078Y0067757D01*
X0106984Y0067872D01*
X0106893Y0067989D01*
X0106806Y0068108D01*
X0106722Y0068230D01*
X0106641Y0068354D01*
X0106564Y0068480D01*
X0106490Y0068608D01*
X0106419Y0068738D01*
X0106352Y0068870D01*
X0106289Y0069004D01*
X0106229Y0069139D01*
X0106173Y0069276D01*
X0106120Y0069415D01*
X0106072Y0069555D01*
X0106027Y0069696D01*
X0105986Y0069838D01*
X0105948Y0069981D01*
X0105915Y0070125D01*
X0105885Y0070270D01*
X0105859Y0070416D01*
X0105838Y0070562D01*
X0105820Y0070709D01*
X0105806Y0070856D01*
X0105796Y0071004D01*
X0105790Y0071152D01*
X0105788Y0071300D01*
X1205788Y0071300D02*
X1205790Y0071448D01*
X1205796Y0071596D01*
X1205806Y0071744D01*
X1205820Y0071891D01*
X1205838Y0072038D01*
X1205859Y0072184D01*
X1205885Y0072330D01*
X1205915Y0072475D01*
X1205948Y0072619D01*
X1205986Y0072762D01*
X1206027Y0072904D01*
X1206072Y0073045D01*
X1206120Y0073185D01*
X1206173Y0073324D01*
X1206229Y0073461D01*
X1206289Y0073596D01*
X1206352Y0073730D01*
X1206419Y0073862D01*
X1206490Y0073992D01*
X1206564Y0074120D01*
X1206641Y0074246D01*
X1206722Y0074370D01*
X1206806Y0074492D01*
X1206893Y0074611D01*
X1206984Y0074728D01*
X1207078Y0074843D01*
X1207174Y0074955D01*
X1207274Y0075065D01*
X1207376Y0075171D01*
X1207482Y0075275D01*
X1207590Y0075376D01*
X1207701Y0075474D01*
X1207814Y0075570D01*
X1207930Y0075662D01*
X1208048Y0075751D01*
X1208169Y0075836D01*
X1208292Y0075919D01*
X1208417Y0075998D01*
X1208544Y0076074D01*
X1208673Y0076146D01*
X1208804Y0076215D01*
X1208937Y0076280D01*
X1209072Y0076341D01*
X1209208Y0076399D01*
X1209345Y0076454D01*
X1209484Y0076504D01*
X1209625Y0076551D01*
X1209766Y0076594D01*
X1209909Y0076634D01*
X1210053Y0076669D01*
X1210197Y0076701D01*
X1210343Y0076728D01*
X1210489Y0076752D01*
X1210636Y0076772D01*
X1210783Y0076788D01*
X1210930Y0076800D01*
X1211078Y0076808D01*
X1211226Y0076812D01*
X1211374Y0076812D01*
X1211522Y0076808D01*
X1211670Y0076800D01*
X1211817Y0076788D01*
X1211964Y0076772D01*
X1212111Y0076752D01*
X1212257Y0076728D01*
X1212403Y0076701D01*
X1212547Y0076669D01*
X1212691Y0076634D01*
X1212834Y0076594D01*
X1212975Y0076551D01*
X1213116Y0076504D01*
X1213255Y0076454D01*
X1213392Y0076399D01*
X1213528Y0076341D01*
X1213663Y0076280D01*
X1213796Y0076215D01*
X1213927Y0076146D01*
X1214056Y0076074D01*
X1214183Y0075998D01*
X1214308Y0075919D01*
X1214431Y0075836D01*
X1214552Y0075751D01*
X1214670Y0075662D01*
X1214786Y0075570D01*
X1214899Y0075474D01*
X1215010Y0075376D01*
X1215118Y0075275D01*
X1215224Y0075171D01*
X1215326Y0075065D01*
X1215426Y0074955D01*
X1215522Y0074843D01*
X1215616Y0074728D01*
X1215707Y0074611D01*
X1215794Y0074492D01*
X1215878Y0074370D01*
X1215959Y0074246D01*
X1216036Y0074120D01*
X1216110Y0073992D01*
X1216181Y0073862D01*
X1216248Y0073730D01*
X1216311Y0073596D01*
X1216371Y0073461D01*
X1216427Y0073324D01*
X1216480Y0073185D01*
X1216528Y0073045D01*
X1216573Y0072904D01*
X1216614Y0072762D01*
X1216652Y0072619D01*
X1216685Y0072475D01*
X1216715Y0072330D01*
X1216741Y0072184D01*
X1216762Y0072038D01*
X1216780Y0071891D01*
X1216794Y0071744D01*
X1216804Y0071596D01*
X1216810Y0071448D01*
X1216812Y0071300D01*
X1216810Y0071152D01*
X1216804Y0071004D01*
X1216794Y0070856D01*
X1216780Y0070709D01*
X1216762Y0070562D01*
X1216741Y0070416D01*
X1216715Y0070270D01*
X1216685Y0070125D01*
X1216652Y0069981D01*
X1216614Y0069838D01*
X1216573Y0069696D01*
X1216528Y0069555D01*
X1216480Y0069415D01*
X1216427Y0069276D01*
X1216371Y0069139D01*
X1216311Y0069004D01*
X1216248Y0068870D01*
X1216181Y0068738D01*
X1216110Y0068608D01*
X1216036Y0068480D01*
X1215959Y0068354D01*
X1215878Y0068230D01*
X1215794Y0068108D01*
X1215707Y0067989D01*
X1215616Y0067872D01*
X1215522Y0067757D01*
X1215426Y0067645D01*
X1215326Y0067535D01*
X1215224Y0067429D01*
X1215118Y0067325D01*
X1215010Y0067224D01*
X1214899Y0067126D01*
X1214786Y0067030D01*
X1214670Y0066938D01*
X1214552Y0066849D01*
X1214431Y0066764D01*
X1214308Y0066681D01*
X1214183Y0066602D01*
X1214056Y0066526D01*
X1213927Y0066454D01*
X1213796Y0066385D01*
X1213663Y0066320D01*
X1213528Y0066259D01*
X1213392Y0066201D01*
X1213255Y0066146D01*
X1213116Y0066096D01*
X1212975Y0066049D01*
X1212834Y0066006D01*
X1212691Y0065966D01*
X1212547Y0065931D01*
X1212403Y0065899D01*
X1212257Y0065872D01*
X1212111Y0065848D01*
X1211964Y0065828D01*
X1211817Y0065812D01*
X1211670Y0065800D01*
X1211522Y0065792D01*
X1211374Y0065788D01*
X1211226Y0065788D01*
X1211078Y0065792D01*
X1210930Y0065800D01*
X1210783Y0065812D01*
X1210636Y0065828D01*
X1210489Y0065848D01*
X1210343Y0065872D01*
X1210197Y0065899D01*
X1210053Y0065931D01*
X1209909Y0065966D01*
X1209766Y0066006D01*
X1209625Y0066049D01*
X1209484Y0066096D01*
X1209345Y0066146D01*
X1209208Y0066201D01*
X1209072Y0066259D01*
X1208937Y0066320D01*
X1208804Y0066385D01*
X1208673Y0066454D01*
X1208544Y0066526D01*
X1208417Y0066602D01*
X1208292Y0066681D01*
X1208169Y0066764D01*
X1208048Y0066849D01*
X1207930Y0066938D01*
X1207814Y0067030D01*
X1207701Y0067126D01*
X1207590Y0067224D01*
X1207482Y0067325D01*
X1207376Y0067429D01*
X1207274Y0067535D01*
X1207174Y0067645D01*
X1207078Y0067757D01*
X1206984Y0067872D01*
X1206893Y0067989D01*
X1206806Y0068108D01*
X1206722Y0068230D01*
X1206641Y0068354D01*
X1206564Y0068480D01*
X1206490Y0068608D01*
X1206419Y0068738D01*
X1206352Y0068870D01*
X1206289Y0069004D01*
X1206229Y0069139D01*
X1206173Y0069276D01*
X1206120Y0069415D01*
X1206072Y0069555D01*
X1206027Y0069696D01*
X1205986Y0069838D01*
X1205948Y0069981D01*
X1205915Y0070125D01*
X1205885Y0070270D01*
X1205859Y0070416D01*
X1205838Y0070562D01*
X1205820Y0070709D01*
X1205806Y0070856D01*
X1205796Y0071004D01*
X1205790Y0071152D01*
X1205788Y0071300D01*
X1205788Y0921300D02*
X1205790Y0921448D01*
X1205796Y0921596D01*
X1205806Y0921744D01*
X1205820Y0921891D01*
X1205838Y0922038D01*
X1205859Y0922184D01*
X1205885Y0922330D01*
X1205915Y0922475D01*
X1205948Y0922619D01*
X1205986Y0922762D01*
X1206027Y0922904D01*
X1206072Y0923045D01*
X1206120Y0923185D01*
X1206173Y0923324D01*
X1206229Y0923461D01*
X1206289Y0923596D01*
X1206352Y0923730D01*
X1206419Y0923862D01*
X1206490Y0923992D01*
X1206564Y0924120D01*
X1206641Y0924246D01*
X1206722Y0924370D01*
X1206806Y0924492D01*
X1206893Y0924611D01*
X1206984Y0924728D01*
X1207078Y0924843D01*
X1207174Y0924955D01*
X1207274Y0925065D01*
X1207376Y0925171D01*
X1207482Y0925275D01*
X1207590Y0925376D01*
X1207701Y0925474D01*
X1207814Y0925570D01*
X1207930Y0925662D01*
X1208048Y0925751D01*
X1208169Y0925836D01*
X1208292Y0925919D01*
X1208417Y0925998D01*
X1208544Y0926074D01*
X1208673Y0926146D01*
X1208804Y0926215D01*
X1208937Y0926280D01*
X1209072Y0926341D01*
X1209208Y0926399D01*
X1209345Y0926454D01*
X1209484Y0926504D01*
X1209625Y0926551D01*
X1209766Y0926594D01*
X1209909Y0926634D01*
X1210053Y0926669D01*
X1210197Y0926701D01*
X1210343Y0926728D01*
X1210489Y0926752D01*
X1210636Y0926772D01*
X1210783Y0926788D01*
X1210930Y0926800D01*
X1211078Y0926808D01*
X1211226Y0926812D01*
X1211374Y0926812D01*
X1211522Y0926808D01*
X1211670Y0926800D01*
X1211817Y0926788D01*
X1211964Y0926772D01*
X1212111Y0926752D01*
X1212257Y0926728D01*
X1212403Y0926701D01*
X1212547Y0926669D01*
X1212691Y0926634D01*
X1212834Y0926594D01*
X1212975Y0926551D01*
X1213116Y0926504D01*
X1213255Y0926454D01*
X1213392Y0926399D01*
X1213528Y0926341D01*
X1213663Y0926280D01*
X1213796Y0926215D01*
X1213927Y0926146D01*
X1214056Y0926074D01*
X1214183Y0925998D01*
X1214308Y0925919D01*
X1214431Y0925836D01*
X1214552Y0925751D01*
X1214670Y0925662D01*
X1214786Y0925570D01*
X1214899Y0925474D01*
X1215010Y0925376D01*
X1215118Y0925275D01*
X1215224Y0925171D01*
X1215326Y0925065D01*
X1215426Y0924955D01*
X1215522Y0924843D01*
X1215616Y0924728D01*
X1215707Y0924611D01*
X1215794Y0924492D01*
X1215878Y0924370D01*
X1215959Y0924246D01*
X1216036Y0924120D01*
X1216110Y0923992D01*
X1216181Y0923862D01*
X1216248Y0923730D01*
X1216311Y0923596D01*
X1216371Y0923461D01*
X1216427Y0923324D01*
X1216480Y0923185D01*
X1216528Y0923045D01*
X1216573Y0922904D01*
X1216614Y0922762D01*
X1216652Y0922619D01*
X1216685Y0922475D01*
X1216715Y0922330D01*
X1216741Y0922184D01*
X1216762Y0922038D01*
X1216780Y0921891D01*
X1216794Y0921744D01*
X1216804Y0921596D01*
X1216810Y0921448D01*
X1216812Y0921300D01*
X1216810Y0921152D01*
X1216804Y0921004D01*
X1216794Y0920856D01*
X1216780Y0920709D01*
X1216762Y0920562D01*
X1216741Y0920416D01*
X1216715Y0920270D01*
X1216685Y0920125D01*
X1216652Y0919981D01*
X1216614Y0919838D01*
X1216573Y0919696D01*
X1216528Y0919555D01*
X1216480Y0919415D01*
X1216427Y0919276D01*
X1216371Y0919139D01*
X1216311Y0919004D01*
X1216248Y0918870D01*
X1216181Y0918738D01*
X1216110Y0918608D01*
X1216036Y0918480D01*
X1215959Y0918354D01*
X1215878Y0918230D01*
X1215794Y0918108D01*
X1215707Y0917989D01*
X1215616Y0917872D01*
X1215522Y0917757D01*
X1215426Y0917645D01*
X1215326Y0917535D01*
X1215224Y0917429D01*
X1215118Y0917325D01*
X1215010Y0917224D01*
X1214899Y0917126D01*
X1214786Y0917030D01*
X1214670Y0916938D01*
X1214552Y0916849D01*
X1214431Y0916764D01*
X1214308Y0916681D01*
X1214183Y0916602D01*
X1214056Y0916526D01*
X1213927Y0916454D01*
X1213796Y0916385D01*
X1213663Y0916320D01*
X1213528Y0916259D01*
X1213392Y0916201D01*
X1213255Y0916146D01*
X1213116Y0916096D01*
X1212975Y0916049D01*
X1212834Y0916006D01*
X1212691Y0915966D01*
X1212547Y0915931D01*
X1212403Y0915899D01*
X1212257Y0915872D01*
X1212111Y0915848D01*
X1211964Y0915828D01*
X1211817Y0915812D01*
X1211670Y0915800D01*
X1211522Y0915792D01*
X1211374Y0915788D01*
X1211226Y0915788D01*
X1211078Y0915792D01*
X1210930Y0915800D01*
X1210783Y0915812D01*
X1210636Y0915828D01*
X1210489Y0915848D01*
X1210343Y0915872D01*
X1210197Y0915899D01*
X1210053Y0915931D01*
X1209909Y0915966D01*
X1209766Y0916006D01*
X1209625Y0916049D01*
X1209484Y0916096D01*
X1209345Y0916146D01*
X1209208Y0916201D01*
X1209072Y0916259D01*
X1208937Y0916320D01*
X1208804Y0916385D01*
X1208673Y0916454D01*
X1208544Y0916526D01*
X1208417Y0916602D01*
X1208292Y0916681D01*
X1208169Y0916764D01*
X1208048Y0916849D01*
X1207930Y0916938D01*
X1207814Y0917030D01*
X1207701Y0917126D01*
X1207590Y0917224D01*
X1207482Y0917325D01*
X1207376Y0917429D01*
X1207274Y0917535D01*
X1207174Y0917645D01*
X1207078Y0917757D01*
X1206984Y0917872D01*
X1206893Y0917989D01*
X1206806Y0918108D01*
X1206722Y0918230D01*
X1206641Y0918354D01*
X1206564Y0918480D01*
X1206490Y0918608D01*
X1206419Y0918738D01*
X1206352Y0918870D01*
X1206289Y0919004D01*
X1206229Y0919139D01*
X1206173Y0919276D01*
X1206120Y0919415D01*
X1206072Y0919555D01*
X1206027Y0919696D01*
X1205986Y0919838D01*
X1205948Y0919981D01*
X1205915Y0920125D01*
X1205885Y0920270D01*
X1205859Y0920416D01*
X1205838Y0920562D01*
X1205820Y0920709D01*
X1205806Y0920856D01*
X1205796Y0921004D01*
X1205790Y0921152D01*
X1205788Y0921300D01*
D17*
X1211300Y0921300D03*
X1211300Y0071300D03*
X0111300Y0071300D03*
X0111300Y0921300D03*
D18*
X0256300Y0748800D03*
X0231300Y0738800D03*
X0238800Y0726300D03*
X0253800Y0721300D03*
X0253800Y0731300D03*
X0276300Y0743800D03*
X0278800Y0721300D03*
X0293800Y0721300D03*
X0293800Y0713800D03*
X0293800Y0706300D03*
X0288800Y0698800D03*
X0303800Y0718800D03*
X0316300Y0748800D03*
X0381300Y0738800D03*
X0408800Y0733800D03*
X0408800Y0718800D03*
X0408800Y0711300D03*
X0423800Y0736300D03*
X0426300Y0743800D03*
X0448800Y0731300D03*
X0448800Y0716300D03*
X0463800Y0723800D03*
X0466300Y0691300D03*
X0481300Y0688800D03*
X0418800Y0611300D03*
X0361300Y0603800D03*
X0341300Y0591300D03*
X0336300Y0573800D03*
X0303800Y0526300D03*
X0331300Y0516300D03*
X0316300Y0436300D03*
X0371300Y0426300D03*
X0316300Y0376300D03*
X0371300Y0361300D03*
X0436300Y0376300D03*
X0461300Y0381300D03*
X0436300Y0426300D03*
X0496300Y0436300D03*
X0556300Y0376300D03*
X0616300Y0316300D03*
X0646300Y0376300D03*
X0631300Y0421300D03*
X0721300Y0403800D03*
X0676300Y0496300D03*
X0616300Y0556300D03*
X0603800Y0573800D03*
X0556300Y0496300D03*
X0466300Y0496300D03*
X0261300Y0678800D03*
X0256300Y0701300D03*
X0161300Y0743800D03*
X0136300Y0733800D03*
X0128800Y0726300D03*
X0123800Y0733800D03*
X0106300Y0738800D03*
X0093800Y0743800D03*
X0068800Y0733800D03*
X0068800Y0726300D03*
X0068800Y0716300D03*
X0068800Y0706300D03*
X0108800Y0711300D03*
X0141300Y0706300D03*
X0146300Y0693800D03*
X0151300Y0678800D03*
X0108800Y0641300D03*
X0098800Y0623800D03*
X0093800Y0568800D03*
X0128800Y0501300D03*
X0088800Y0453800D03*
X0123800Y0446300D03*
X0371300Y0256300D03*
X0316300Y0196300D03*
X0256300Y0196300D03*
X0376300Y0136300D03*
X0403800Y0138800D03*
X0436300Y0076300D03*
X0496300Y0136300D03*
X0556300Y0196300D03*
X0556300Y0256300D03*
X0496300Y0256300D03*
X0436300Y0316300D03*
X0676300Y0256300D03*
X0736300Y0196300D03*
X0668800Y0158800D03*
X0676300Y0136300D03*
X0736300Y0136300D03*
X0736300Y0076300D03*
X0676300Y0076300D03*
X0616300Y0076300D03*
X0316300Y0076300D03*
X0933800Y0511300D03*
X0943800Y0461300D03*
X0963800Y0453800D03*
X1098800Y0426300D03*
X1143800Y0436300D03*
X1158800Y0481300D03*
X1113800Y0501300D03*
X1133800Y0566300D03*
X1148800Y0698800D03*
X1138800Y0706300D03*
X1138800Y0721300D03*
X1138800Y0731300D03*
X1153800Y0726300D03*
X1153800Y0711300D03*
X1113800Y0716300D03*
X1098800Y0716300D03*
X1046300Y0743800D03*
X0968800Y0721300D03*
X0968800Y0706300D03*
X0958800Y0703800D03*
X0953800Y0691300D03*
X0928800Y0706300D03*
X0928800Y0713800D03*
X0928800Y0721300D03*
X0943800Y0716300D03*
X0943800Y0731300D03*
X0911300Y0748800D03*
X0891300Y0743800D03*
X0881300Y0776300D03*
X0813800Y0731300D03*
X0813800Y0723800D03*
X0813800Y0716300D03*
X0798800Y0716300D03*
X0773800Y0711300D03*
X0758800Y0706300D03*
X0758800Y0721300D03*
X0773800Y0726300D03*
X0776300Y0743800D03*
X0758800Y0748800D03*
X0758800Y0756300D03*
X0746300Y0781300D03*
X0771300Y0791300D03*
X0801300Y0786300D03*
X0713800Y0853800D03*
X0668800Y0816300D03*
X0591300Y0781300D03*
X0606300Y0743800D03*
X0603800Y0731300D03*
X0626300Y0743800D03*
X0643800Y0736300D03*
X0643800Y0728800D03*
X0643800Y0721300D03*
X0628800Y0721300D03*
X0626300Y0703800D03*
X0616300Y0701300D03*
X0593800Y0698800D03*
X0588800Y0706300D03*
X0588800Y0718800D03*
X0588800Y0726300D03*
X0653800Y0748800D03*
X0451300Y0781300D03*
X0416300Y0796300D03*
X0726300Y0576300D03*
X0861300Y0571300D03*
X0938800Y0628800D03*
X0968800Y0638800D03*
X0958800Y0568800D03*
X1153800Y0306300D03*
X1138800Y0261300D03*
X1148800Y0191300D03*
D19*
X1186300Y0181300D03*
X1186300Y0241300D03*
X1186300Y0301300D03*
X1186300Y0361300D03*
X1186300Y0421300D03*
X1186300Y0481300D03*
X1186300Y0541300D03*
X1186300Y0601300D03*
X1066300Y0601300D03*
X1066300Y0541300D03*
X1066300Y0481300D03*
X1066300Y0421300D03*
X1066300Y0361300D03*
X1066300Y0301300D03*
X1066300Y0241300D03*
X1066300Y0181300D03*
X0796300Y0206300D03*
X0736300Y0206300D03*
X0676300Y0206300D03*
X0616300Y0206300D03*
X0556300Y0206300D03*
X0496300Y0206300D03*
X0436300Y0206300D03*
X0376300Y0206300D03*
X0316300Y0206300D03*
X0256300Y0206300D03*
X0256300Y0146300D03*
X0316300Y0146300D03*
X0376300Y0146300D03*
X0436300Y0146300D03*
X0496300Y0146300D03*
X0556300Y0146300D03*
X0616300Y0146300D03*
X0676300Y0146300D03*
X0736300Y0146300D03*
X0796300Y0146300D03*
X0796300Y0086300D03*
X0736300Y0086300D03*
X0676300Y0086300D03*
X0616300Y0086300D03*
X0556300Y0086300D03*
X0496300Y0086300D03*
X0436300Y0086300D03*
X0376300Y0086300D03*
X0316300Y0086300D03*
X0256300Y0086300D03*
X0316300Y0026300D03*
X0376300Y0026300D03*
X0436300Y0026300D03*
X0496300Y0026300D03*
X0556300Y0026300D03*
X0616300Y0026300D03*
X0676300Y0026300D03*
X0736300Y0026300D03*
X0736300Y0266300D03*
X0676300Y0266300D03*
X0616300Y0266300D03*
X0556300Y0266300D03*
X0496300Y0266300D03*
X0436300Y0266300D03*
X0376300Y0266300D03*
X0316300Y0266300D03*
X0256300Y0266300D03*
X0256300Y0326300D03*
X0316300Y0331300D03*
X0371300Y0326300D03*
X0376300Y0386300D03*
X0316300Y0386300D03*
X0256300Y0386300D03*
X0256300Y0446300D03*
X0316300Y0446300D03*
X0376300Y0446300D03*
X0436300Y0446300D03*
X0496300Y0446300D03*
X0556300Y0446300D03*
X0616300Y0446300D03*
X0676300Y0446300D03*
X0736300Y0446300D03*
X0796300Y0446300D03*
X0796300Y0386300D03*
X0736300Y0386300D03*
X0676300Y0386300D03*
X0616300Y0386300D03*
X0556300Y0386300D03*
X0496300Y0386300D03*
X0436300Y0386300D03*
X0436300Y0326300D03*
X0496300Y0326300D03*
X0556300Y0326300D03*
X0616300Y0326300D03*
X0676300Y0326300D03*
X0736300Y0326300D03*
X0796300Y0326300D03*
X0796300Y0266300D03*
X0796300Y0506300D03*
X0736300Y0506300D03*
X0676300Y0506300D03*
X0616300Y0506300D03*
X0556300Y0506300D03*
X0496300Y0506300D03*
X0436300Y0506300D03*
X0376300Y0506300D03*
X0316300Y0506300D03*
X0256300Y0506300D03*
X0316300Y0566300D03*
X0376300Y0566300D03*
X0436300Y0566300D03*
X0496300Y0566300D03*
X0556300Y0566300D03*
X0616300Y0566300D03*
X0676300Y0566300D03*
X0736300Y0566300D03*
X0786300Y0771300D03*
X0616300Y0771300D03*
X0436300Y0771300D03*
X0266300Y0771300D03*
X0096300Y0771300D03*
X0956300Y0771300D03*
X1126300Y0771300D03*
M02*
